<mxfile host="65bd71144e">
    <diagram id="cw5nW1g9ReKed_fE_Xnm" name="Page-1">
        <mxGraphModel dx="804" dy="1844" grid="1" gridSize="10" guides="1" tooltips="1" connect="1" arrows="1" fold="1" page="1" pageScale="1" pageWidth="850" pageHeight="1100" background="#3943BC" math="0" shadow="0">
            <root>
                <mxCell id="0"/>
                <mxCell id="1" parent="0"/>
                <mxCell id="7" style="edgeStyle=none;html=1;exitX=0.5;exitY=0;exitDx=0;exitDy=0;" edge="1" parent="1" source="2">
                    <mxGeometry relative="1" as="geometry">
                        <mxPoint x="262" y="-180" as="targetPoint"/>
                    </mxGeometry>
                </mxCell>
                <mxCell id="2" value="" style="shape=image;verticalLabelPosition=bottom;labelBackgroundColor=default;verticalAlign=top;aspect=fixed;imageAspect=0;image=data:image/png,iVBORw0KGgoAAAANSUhEUgAAAUsAAAFICAYAAADZI9wwAAAAAXNSR0IArs4c6QAAAARnQU1BAACxjwv8YQUAAAAJcEhZcwAADsMAAA7DAcdvqGQAAFhsSURBVHhe7Z0NXFRV/v8/4Li6oZD9F9ZBSTdMFJA2FTWjn8NqsD1su7lBaYr+rNSg1awgLV3Qn6Wp6aqBmebmQ2qQ2pNuouS0ofn8LxdQSlqVhzHoL/JU6y/g/s+ZuXfmzsydmTvDgIDf9+t1XlzO3Idzzj3ne7/nnO85Xx+BAYIgCMIpvuJfgiAIwgkkLAmCIFRAwpIgCEIFJCwJgiBU0DGFZf0OLL+nK3x8HkTisatiJEEQROvRfoRlYw5WDPBhAnAmMioaxUgH1BajIJ+fcw6Fl+pMcQRBEK1Ix9Qs/cMQGaNhB4MQcWtPU5xbNKL2wDgE+wxARE6pGEcQBOGYjikse0xA6hc/QxA+QfbIm8VId2hCQ3U1DOJ/BEEQrqAJHoIgCBV0TGEpjW8Gv4SsmmYxUqROj9y1sYj14eOfPAxBxKIc5JT9L/vxGgzZw1hcdwQ/epr9X4KixFvF81SOlxIEcUPSsTVLwxVUNsiEJZ8lv/9exM/SQy9GAQUoSk9E4sufoBBdxDiCIAj36ETd8EbUfvk2VuUHInDO+zhU2wS+7F1oKsDRrQmI8vPHLdBAm3iKxf8HFe8NZdeEIjz7kuk8Y3gTGcF84oggCMKaTiQsq/HNqTMwIAy6R+Oh6ylmzTcCIydl4+uscdCaYgiCINymEwlLf/S5LYT91WNP5i7k1dmMZRIEQbSATiQsu0F7/wtYFqNB49apGOd/H2LX7hEndgiCIFpGJxKWDG5/ue8APl0YzrrcudDPGo/EkP4Iem4zCU2CIFpE5xKWnJ46xP+1EBVNBfhy6wykxlShatVUJE7ORE49dc0JgvCMzicsJXwjMGrSm1j2+RHsSvID9O8i68gV8UeCIAj36LzCUsI3DJGje7ODq6is+ckUhy7w69WLddVLUPLv73FNjCUIgnBE5xGWzXnYEPIIEjfLJ3UaUX92JTZuu8iOh0I3JNAUDQ16hIRhCDu69o+9eLucn9+Iuq8+gp5m0QmCUKAdCsv1WNiH71UpLUG0hK5pnznd/KJL2IfImcondbqJ13RFz/CFWM4N1Zc8j4xB3cUzWcYHjsejYzWse56BlL78/K7wv3MfCUuCIBRpP8LS9xbc0t/N1TPaWxDkJ2bBdwwSV7+BHWt00JlijGgmL8P8D/JQOHckJL3SiO9YTN28BW/PlkzVtQicc6/FmJ0gCEIGucIlCIJQAalRBEEQKiBhSRAEoQISlgRBECogYUkQBKECEpYEQRAqIGFJEAShAhKWBEEQKiBhSRAEoQISlgRBECogYUkQBKECEpYEQRAqIGFJEAShAhKWBEEQKiBhSRAEoQISlgRBECogYUkQBKECEpYEQRAqIGFJEAShAhKWBEEQKiBhSRAEoQISlgRBECogYUkQBKECEpYEQRAqIGFJEAShAhKWBEEQKiBhSRAEoQISlgRBECrwYUEwHRIEQRCO8BEY4jFBEAThAOqGEwRBqICEJUEQhApIWBIEQaiAhCVBEIQKSFgSBEGogIQlQRCECq6DsCzDyVdD4OMTjKClx1AlxrZL6ndg+T1dWVofROKxq2IkQRA3ItdBWFbiYhEXkQZUnS1n/7VjaotRkN/IDs6h8FKdKY4giBuS6yAsg9AvPJD91SJwcB/2XzvGPwyRMRp2MAgRt/Y0xbWIEnz2QgDTVGcio4ILYYIgOgq0gqdNOY1dk0bjkXenIr38DWQEc0FMEERHgCZ4CIIgVOBdYVmnR+7aWMT6+LCuJg9DELEoBzll/yuewKnCyaVB7LfhiM39QYxjNOdh0zg+mSJdaxOm7EaheKpEcxm7t93z3kVWYY14hpxG1B+baDo3dhVy6pvFeCc05mDFAHZ+8EvIqpGfzzXE7mKamlFfmIUNzwaLaQhG0HMbbdIgnu8zjGmV19j/67GwjyyvCnkjCKJ94T1hyWeO778X8bP00ItRQAGK0hOR+PInCsLgKiprfhKP3aUBFYf/G/89gt3b7nmTkBKZiHEHypl4lNOEuovFpnP1xSisVSEsJQxXUNmgdP7/Q/m6OzEwMgXTVxvEOAOqVj2FlHtfRobVR4IgiI6Ml4RlI2q/fBur8gMROOd9HKptAh8KFZoKcHRrAqL8/HGLeKZDfMdi2sGfTddJoek4diX5sR8jEfXgMISZzmQa5XIsSHgHWwxx0K3Zb3meUIFzH09AkjYXeVMy8ZaVNtgFPfuFQccPdWGI8PdC1rdMR3zyGVRNfh2rC6+a0lC3FxseY2k2ZOKVNflMdHKG4s/b/sN+P4X3H+/G/p+B9HJZXjePR4TxPIIg2i2ssXqBSuHEkkCBSSEh4WidGOcI6dxQITz7khinxM9CTe5YQcv324x7WzjUJEYLNULxm6Hseq0QuOQou5st9ULZe9HsOlf3V8HP2cLyUL7f5wyBCTcxknNKYELPlIYX9gsF5rSZaCpNF6Zp2XWhy4Vs+WXm62zvRxBEe8dLmqU/+twWwv7qsSdzF/Lq3OjiOqI+B+sXfc40sweQsGg8dFJKm08gP+ciO4hBwp/uADdCssYP2qhoDEEJSv79PfgIYauhnYqM+eMQYVOKvsH34O5wDVByHoWVZCJEEJ0BWTNnXekD4xAsTTrIQ/wm6J3Kv27Q3v8ClsVo0Lh1Ksb534fYtXtsJnbcoQwn16QhjXfrlyxA5sibxXhGXTGKi7gAykHW4F/ap5WFLoOzkMvOuFZ4CeeNF7USN92CQD+F741vLwT07iL+QxBEZ8BLmiWjxwSk7juATxeGQ8tElX7WeCSG9EfQc5vdFJp81joNqS+XsV59KjKfibbWHhsqcVmaS3FKBzB6JwiiwyATlhr433sQFdKkgzzsn2bpBjujpw7xfy1ERVMBvtw6A6kxVahaNRWJkzPVmepwWPd73Qs5rEPPut9L/xsJPWwe7BeE3lp+YDNJYhcqUDl3pEI3nSAIwn28p1nK8Y3AqElvYtnnR0yz2fp3kXXkivijM2rxzbsLWPe7EZpp0zA/Wtb9lugZhjA+HohiFJX+xxRHEATRyrSOsJTwDUPk6N7sQJ1NZXPZSry2sIT1oFPw8sIHEaWUOt/+6P/bm9hBMfSHCtv3rkV2BKBXb246RIKeIDoa3hGWzXnYEPIIEjfLJ3UaUX92JTZu4zPXQ6Eb4qJD3HwCH7y8ApsMkYhanYr5fX8h/mBLKHRPTkIcN/6e9yR0tiuE6vT4ODMNiyLGIuWcXCB5sILH6wSi7+28HJigf/8ICo1JMOBMTlEHE/oEcePhNc2yS9iHyJnKJ3W6ibPSXdEzfCGWG2e0n0fGoO7imQ64vBcfbmlgBwU4k9gfXWWz26Zg2anHd9Ay/H3//dBJK4TMz2TBPxYPPbMc6UX/x3iuhRas4PEa/hgwJt4k6FfEI7ILT3Mw7vjkXPveqo4gCC8JS98xSFz9Bnas0ZlWyIhoJi/D/A/yUKg40XIzggJ+KR4zzBM3avBDcNyH+LjgTewwzr7L0CYh4Z0dyCzYgEwrAd2CFTzaWxCkZCLkAUZBf2QOUo1bv3HioLsvnGbtCaKdQ1u0EQRBqMBr3XCCIIjODAlLgiAIFZCwJAiCUAEJS4IgCBWQsCQIglABCUuCIAgVkLAkCIJQAQlLgiAIFZCwJAiCUAEJS4IgCBWQsCQIglABCUuCIAgVkLAkCIJQAQlLgiAIFfiwQFu0EQRBuID2syQIglABdcMJgiBUQMKSIAhCBSQsCYIgVEDCkiAIQgUkLAmCIFRAwpIgCEIFnUtY1mThxWAf+EzZjUIxCo05WDGAxcVvgr5ZjCMIgnAT7whLSSD5zERGRaMYySnDyVdDWHwwgpYeQ5UY2zrU4pudK7HMMAy6x/8LEWIsNPF4KDUUyM3CwoM/iJEEQRDu0cqaZSUuFnERaUDV2XL2XyvSfAL5ORcBbRwSRt4iRnL8MWBMPOJwCvnv/RNnSLskCMIDWllYBqFfeCD7q0Xg4D7sPw9Q6lrb0YjavCWYn9cIzaRxeDjAOlu+A8fj0bEaNG7aifXf/EeMJQiCUE8rC8u+GP5SKQShApVzR4KLTbdpqMRlg3jskIs4uf8E01+HIWZcFBPNNvhGIyahHzvIx54vLjDRShAE4R4uhGUtvlk/AD4+sUg8Vi/GtUMaT+P0B7XsYDjGRN5sirNC6oobYHj/CPKpK04QhJu4EJbXUFvNhZCnVOHk0iAmbIcjNtd2csWAc/tSkHZPV/Y7nxzyQdek5cg4UmHS/CoyMIXH91mILfz/LX9GpHiej88AROSU8lgjzef1OFDCDuJGQNdbY4q0wVcbgd9ylfNf51FUZyMt63dguTEdD7KPwlUxkiAIwkIrd8MlrqKy5ifxmMNnyUdg8ANZWJ5v6RQ3bk3DwrsXYbHVjLorruH7M0eRy440d/RHmKMc9QxDWDgTpIYvoT/3oxgpUluMAmM6zqHwUp0pjiAIQkYbCUsbaj5CzhtlgG4e0ouugu8SJwj1KD+cjoVRvRDkx5IVnIHNPL48HUn8mqRdKDCex8N5FCaEGG/FhwrKv+NaphaBtwc7Hhf17Y/+v72JHZQygVhtipPwD0NkDNdIByHi1p6mOIIgCBnXRVg2ntNjlwHodt94zBscIMb6IXh0Bv769RIk28xmO6cWtT9cY39vQq+b/aDcCef4w/9X3djfEpT8+3umj8roMQGpX/zMhPAnyB6pNOZJEMSNjpVUajyWiAHmcUEeghA9j9tJ6pEzqqcsnoXgl5BV49lMiSYkHHezv9f+tg7PFdWYIj2mBtWXuei7GUEBvzRFKeKPPrdJ2ihBEIR7XJ9uePCT+MsrfQHDJmRFDEbQc29i8WFxYsdjeiIwoLt47JymH2pxRTwmCIJQg5Ww1IzMxnnzuCAPlTixhI8C6pBwtE4Wz0LFq252l+Vw+8vjOPfxBCRpDaha9TQWxPRB19gXMftoS4UmQRCE97k+mqURLcIe3I7NFfUo/2IJ3pqtZb39ZVhz13RM9Mh8pw5VNc5W51xDXbWpy9/lV/6QL4gkCIJwxXUUlhJ+CI6Zi6f+9i3K3otmInQv9uw6DZeLduywNU+ypaU2owRB3Mi0A2Ep4QdtVDSGsKPG769axhT9gtCbG5Mf/g5Fiv3zEPSL9Gd/f0T11QYnXXhp1jwUob/5Nfi8OEEQhFpcCMtu8O/FBZE3qUXxujsQsWiL9aROXR52v7kHuUy31MaEI0yMNhuTlxzA+kPlpvPr8pFzRppFl2a5Daj6tsLxNnDNF3DhK26MHoKIW3uZ4iRoBQ9BEC5wISz9MXDGeQjCIWSP7CHGtRwf3wYUpU8xTepIpkj+45CwmnW+dalYPWGgxV7SvAlGLvLi+prO95+KjGKpS90Nv44ahTh21Pj1BRQ7smaqK0YxV021d0E3iBuny6AVPARBuKCNuuFyG0gmgCduxN63ZyDVuGpGRJuEhHdyceij2UjoIU8WO/+pD3E8SwedGANdIhKMXW8T5nXfucehv6zcEZcM4TFkAMJ72mSbVvAQBOECH4HbAXV4SvDZC0Mx9vXbodv/KQ7F/UqMl+C7Jw1F2MwfoX3rM1x6apCTlT4EQRD2tJFm2dr0w/B4PpN+CvkHz9jPpEu7qCMGD9/TnwQlQRBu00mEpQb+I8ZjMuuKN247iD02yzCbv9mN9/JY9zzu90gYqG6VD0EQhJxOIiwZAZPwRHooYMhFzjH5YsZanP98P3IxDLrnH4Ku8+SYIIg2pBOJDn8MfOw5pGlPQf/uP2WucPfjo+UlgO5xJI+mdTsEQXhGJ5ngIQiCaF2oU0oQBKECEpYEQRAqIGFJEAShAhKWBEEQKiBhSRAEoQISlgRBECogYUkQBKECEpbXi5osvBjsA58pu2UG9DlYMYDFxW+C3jPHmQRBtBI3rrC8rhv+1uKbnSuxzDAMusf/CxFiLDTxeCg1FMjNwsKDP4iRainDyVdDWH6CEbT0mONNkAmC8IgbV1hezw1/pV2QtHFIGClfgumPAWPiEcd3T3rvnzjjlnZZiYtFXEQaUHW2nP1HEIQ36WDCku9bGcC0p5nIqFDe5Fc1123D30bU5i3B/LxGaCaNw8M27oR9B47Ho2M1aNy0E+u/ceat0pYg9Avnbou1CBzch/3XUlg6D4xDsM8AROSUinEEcePSwYRlDaovc6djXqDHBKR+8TME4RNkj7xZjGwLLuLk/hNM/xuGmHFRTLTZYHajkY89X1xw4oDNFu6LvZTlpwKVc0eCi82W0YSG6moPvGwSROfEhbDkO4wPYJpcLBKP1YtxRItoPI3TH3D/QcMxJlJJSEtdcQMM7x9BPk30EES7wIWwdMfXtgFnP56H1yb0YMJVdEJmG+Qzv0YaUJG/FBueDbacEzwFiZsPQF8nlxKnsWtSd/b7MDzyLtcs12NhHz45o3RfA87tS0GacfLG9HvXpOXIOCLzJMmRZp6DX0KWebNg6eMg3tcuKHT/mwtxdNtMu+ct+PCs4iRL83k9DpSwg7gR0PVW3rPd7FPoX+dRZFUODIcTU1U4uTSIxQ9HbK58cugaDNnDWLyY9jo9ctfGIlbKU+yLSNl3TpZW6fzuCH70NPu/BEWJt5rONQYvDIEQRAfES91wPhM7AuEPLcXcnQ1inAu4kFkyAsPvmYfp3KujhGELcqbGIfah/0FW+f+KkWoxpWPwA1lYbpy8MdG4NQ0L716ExUqN3HAFlQ2eqW/N5e9g5eMjcdfk9XbPW/ynsYhIzUWh1a2v4fszR5HLjjR39EeYo9KX3P8avoT+HHffK8PlxNRVVNb8JB7L+RnXTj6DKWGxiJ+lh16MhX4Zsh5IwLici250+QniBoTvZ+mYSuHEkkAB0AkJR+vEOHuaziYLcexW0CYJEw5XCD8bY38W6orShdQYDYtPEdJLrxljTdQLZe9FC0x5EqBLE5L3nmVPEqk9JHy6MNz4myY1T6gQo02cEt5/vBtLzwwhvdz0FCuuZgppWn7PeUJ60VUxsl4oP5wuLIyaK2RebRLjGD9nC8tD2bmO7mXGklbNtF3C19Itmo4Lu5L82PVaIXDOBiGzQHoey3fhSmHpY/y3YYJuf5UYz5HKUyto3zorlpMS54W85/3ZeaFCePYlMU6kbruwjJcpHmDvpFqM5Ej3tr3mP0LFe0NZPM+r6R0lfHJOLO8K4WxWlOk9aOdZl4/5OoU0EMQNiBeEpdSolASAg9+aDgpvj1Vq8CJmQWQryJwLy5+PJgihrOF3e+0Ee7IL1ApLSQAjQUg++5MYKftA6FYK2XVyIWOiqTRdmMavS9olFIhxToWgFVK5q8yLERXCUpchZJbJP1oMc1nbvmMSlgQhx6oj2HgsEQPMY1M8BCF6Hh/N0iNnVE9ZPAtWY32OuIa66hrx2ILFgdh4JEcrTHL4hiFydG92UIyiUvXmM5qQcNzN/l772zo8V2T/XPdh3frMJVhm0CJwyfPIGCQ5O5P8+mihnXgfHrbyc27CN/ge3M270oe/Q5G5fyvN5sv9qCvhjz63hYjH3mIYU7hTkNznF+L/IuayLmXd+mpTHEEQdnhhzLIbfh01yjR7u/3veP6oNJHSgIovM7BxG3dBOxQxUb1FF7SNqC8txr/4Ye4TiO0iE8DmEICwmXwWxM0GHPwk/vJKX8CwCVkRgxH03JtYfNhmYkc1LJ3H0pD6chlTulKR+Uy0zBynCmXfmgzADdMHo6td+lnoMg5P8A9CyXkUVtqmoCcCA9R5mWz6oRZy92ue4+iZ3dCzV4B4TBCEI6yEpWZkNs6buuZiqATr2rFfdGBdNFk8CxWvIlk0qPYd9ASmP97NOFmw5q4+ovDogT6jV2F5fiACX5iFdLMG6Y79nrsG49zW8DjOfTwBSVoDqlY9jQUxLD2xL2K2WYirpD4H617IYTr1A0hY+t9IsNIe3bD31IUhwt8L3ySCIK4rXmjFXANbgTfevR3hC9dh6WN+YjxDl4bkLbtx6LU4RJif1AV+vXqZjLGTdqFALoDtgicG41qEPbgdmyvqUf7FErw1mz3JKMSnY6LqNeCs+70mDWlc0C9ZgEy7NASgV2/2cUAowrMvKaRbFg7NsRG0nDpU1TgbXrAMX3T5lT/IJyVBXH+8ICwv4njOXui1f0DK7Ol4cUe9TFC8hszJo2SCkqNBj5AwDOGHVuN53sYPwTFz8dTfvkXZe9FMhO7Fnl2nVWm0zeeW4GXe/daOR/KkOxVWwwSi7+08tgQl//6eiTZ3cWTeI+GOfStBEG2BF4Sl2CU1nMLu4wZVXV2z0XWJHjmn3NnxR9Lo3Jn48YM2KtoonBu/v+p6/K/5BD5Yshm5iETU6lTM72szIWLkJvS+rb9RO772jy/wUb1aO80Q9Iv0Z39/RPXVBidlVYvaH7gIDkXob34NnuO2R+oBePpBIIjOhQth2Q3+vXjjdoa0gUMu8uL62k12GFezvM40T/lKlIBJeCI9lB3sRc7Ds5G47ZjMeJt16wvXY9vmRDwUssFmX0dJoyuG/v0j4jUGnMkpQhUTQMXr7kDEoi3Wkzp1edj95h7TzHVMOMLEaGUaUP5+Cp7Z0gDNtIXY+ud+4qSULRr4j52HxWPZr/rnMDH5dZsVQgac3b0YOxbdgZAN52Tx0iy3AVXfViiu8DHSfAEXvuLG6CGIuLWXKU6izbaWs/QArv1jL942LhBoRN1XH9msriKIGwTWXW45dXuFDUYjbG6P6CDY2vg1fS0cfF6rfK4U4t4WDtmYMJrtG+XBaMv4k1D8Zqh1vDzY2kMq2llKdpw215qDtc1hU9lqYa7RQFzpXB7sbU/N6VfImxnJttPOUJxRni4kGe9ta//oys7Ska2sE3tKsz2slB8eXBnxE0TnxAvd8AZUHMnEuzt/g/B1Z1Apn9wQ6lF+ZA5S+VZo+vVYvO87i5blG4WxK06h6KO51pNCDM3kZZi/4hMcen8qdDYp9B20DH+X7mkkDrr7wpl+2x0DJ27E3rdnyH5jaJOQ8E4uDn00W2GihaG9BUF+UrzUzVeHb59ZWLLvAD59JwFJxhkriUiEL9yM9D15+PqpQVbaqXkIIvc49JeVO+KN5/TYxQdXhwxAeE+bNLvcWs6VDacb+I7F1M1b8DafJDOiReCce6GzTRNB3AgYRWZLkLQgh5rSz0JN7ljTkjqr1Sw3KtIqHtulkBI1oobsakkkQRBtSYtVBLMW1PtmBCre7Udc/u6CcRZa8+ubyQwG/TA8ns/On0L+wTP2s/PSLuqIwcP39HcwZkoQRFvTYmHpGxAIPlWDLevxzNpc68H/5kKcWPdHzDCuxnkAD/95qHEG+cZGA/8R4zGZFUTjtoPYY7Nk1LIU9PdIGKhulQ9BEK2PD1cvxWMP4dui3YVobpfokEiEr9sO/cwhXtjBuzPA980cirCZN0O3/1McivuVi3iCIK43XhipNy0xLNqTblotY0UcdGt2ILMgH4UkKGX4Y+BjzyFNewr6d/8pc4W7Hx8tZ1q47nEkj6YBC4JoT3hBsyQIguj8kA0IQRCECkhYEgRBqICEJUEQhApIWBIEQaiAhCVBEIQKSFgSBEGogIQlQRCECkhYEgRBqICEZYegEbUHxiHYZwAickrFOBZrdF0cjGCrDYYJgmgNvCMs22z37huU5s/x/mufw6BNREpcHzES0ETPwEtjq2BI34K3XPpwt+U0dk3qrtL/+3WkMQcrBvBd92cio4I+CcT1wzvCsrYYBfm8Ip9D4aU6U5y7NOdh0zgucK3dUlgHJizOqfW903mQdiLSTBqHh0X3w0Z8oxGT0A8wfIz1uaWeaZeGK6hsIDcRBOEK7whLl7t3q+DyF/icb03WYVHuKrecEug3bkMuhiFmXJTNFnf+GDAmHnEowJmNecgnmUcQrYZ3hGWPCUj94md45ufblhlIL+f3krunkEI2Mge11z0em9BQXW2/mW9LqdmP/dtrAW0cEkba70TkO3A8HuWO03I/Rc43N57WTRBthQthyfdXHMC6v7FIPFYvxhFtiXkn+nuHY4y8Cy4hdcWRjz1fXKCJHoJoJVwIS5XO/qVBeMXJAgPO7UtBmnECyDT2yN3jWruO9ZCKDEyRur3NhTi2LRFTgsXxzeAp1i526/TIXRuLWJdpECc+puxGIZqNbnl3Lopg3WvxvrEvImXfOZkb22swZA9jv3VH8KOn2f8lKEq81XSuMfCJifOme/oMR2zuD6bL7CjBZy8EsHPkH6ZafPfVafaLMze+kg9zJfe6jag/NtGU59hVyHHo39w+ny7fESvvo9tmWr1XH594xK7diazCGvEkBTy9jiCuN6x76wTJvaojN6oiim5lOaXCiVf68v0yFYLNuWYXr264WjVeEyqEr9vlwBWvVghcckQoL0oXUhVd1j7A8lUt3kxCdIeb9K5wbP/9gs7uGh4i2TPPsNLhSK5klc7jgeenzuymV5OaJ1QYr7NB0f2t5JrXkXMzE2b3uqHLhWyropOnzbZcpXtPFNLWjHWYz6jsC/ZO01y6Po4TxuaWeec6h3WLINoW74xZOqLmI+S8UcZk7TykF10Vxx3rUX44HQujeslc0LYEpsk9/Wc8tfNu6LK+REETf0YFzu0YCx3XtuaNRp/whVheMhETDleANTcItQeRY9zVfS/27DqtPM645XGMjN+H/MmvY3WhmHbzdQXsmf+DDOPMfDdoE0+x3/8DJpjY/6EIz74k5pWHN5ER3EOciGG63vI3sdhuRr8Rtcd3YytLiNWMd2MJ/n30Gju4DeG39jDFKWB2r1tyHoWVcl2wC3r2C2PlwNCFIcJfqby3Y9msPIf5PDN7ORaX/a/pVE7zCexOSWTl3cDumYZZX5abypSFprLtotvcXORNWeKd6wiivcAqqxNapln+fDRBCGWP6PbaCabjuMCsWToKCmkwX6OkyUguZ9nv2mlCcuFVMV5EUZPjSBoX00pf2C8w4WtN00Hh7bFcS7V1VStpcUzTzb4kxsloOi7sSuJalZKLWwfucaU0utKqzOXv4j1Z4Vk+zVqsNkVIL70mxsrw8nWkWRLtBStVw7QiRBpH4iEI0fP4KJgeOaN6yuJZUGHMrAkJx93s77W/rcNzRa03HqVJfRFb7+1j4zY2EH1v515/mKa3OgOZ4QGmaImAURjxu25O7AwfQvKc3yHCVhkzT6gYYMgvQrEp1jW+d2LcpFHGsUXD+0eszXwczXg3VOIyV3u1tzjXwjWh+M0olhePcCeftTj/+X6m/3ENeDxm9P2FMdYK3xjcNz2KHXjjOoJoPzhpgV4g+En85ZW+rP5vQlbEYAQ9x7qgrCvsfGLHkenQIWSPVO6KdvmVv4I/8m7o2ctGQHoFf9z226Em97+Xr6LK+fdChsUFrrWZj4MuuJybbkGgqiGLOlTVeMt8SCmfVSj7ln88QzEw+nYHbo27IbBfqOm6w9+hyPiyPb2OINoPVi1QMzIb560EVCVYN5z9ogPr3sniWah4FclKDdsKk+fHcx9PQJLWgKpVT2NBTB90jX0Rs496YTb8elNyxQ1hyQiIR/xEf3YgN/O5iJP7TzB9SsnovJ1gzmcNqi/zMVR38fQ6gmg/tK5maUSLsAe3Y3NFPcq/WGJyl6tfhjV3TcfEjr6OPJRpfG6VYD8Mj4+27oq7MDo38iMTVs6WJDZXo+ZyEzvoicCAVjDadzufBNH5aMMm4IfgmLl46m/fouw9LjCczES3ayTbR6aJ39EfYW6VoG1XvEHsgmsROOuPSHCkqbtav918BVcueFtPV8pnCPpFcs24BN+c+NbBu7uGqoslpuvGD4VxFazH1xFE++E66At+0EZFYwg7avz+Kq6YItshHyFr1WcWo3aJ+r34cNtFdmDbbe4Cv1692P+swf/7e9b0HRDwEBKe6csOeFf8OI4Zu+AxSPjTHeADHlYERWCIcRCPaZa1ToRhQxWqfuQHYQgPcVezdCefvTBwmOm4cdturFcy8anfjW1rz7ADb1xHEO0HF8KyG/x7cY3AE2pRvO4ORCzaYj2pU5eH3W/uQS5rDo5XpbQHDKhaMRWxL2xGjtS4Wdrfn/880vgOS3bdZg16hIQZPwLX/rEXb5fzaxpR99VH0NfJJVFfDB3/EOLY/Q3vLMKrvAse93skDFQQcuZZ7u9QdMnxctNmQyG+4upa6ABEBMlVMjUreNzJJ9OMx87DYr4W3ZCJhZMXyMae2bOKVuG1p54yXad7HMmjW3odQbQjBG+gaAtXY161ohh0K4XsOplxn0s7Sx5s7BDFa5TtOF3YPZrtDG3t96T4OGHa02EC03DEZ8uDgxUqZltB+bkK9oFW5ynZXUpIZejsnJ+FmtyxxnTarw5SsYIn6S1hf1aUG/n8WagrnCUkGe0/HQRdhpBZZmtL6eF1ZGdJtBO82w23sgf0x8CJG7H37RlIlQ9AaZOQ8E4uDn00Gwk9ZI/vfQ/GcM2jzQhAr97ObBN/g5D5p3DycDqWPuYnxmkROGcDMguycdDOrpPhOxZTN28RV6Nw+Pn3QtfTppjNNoycGDx8T3/7exmxrPt2bHtYjW9OnWFnsGfdHmzTlVezguf/oM/TJ9zIJ9Ogw1djc/EhfPpOApjws2B+twuQ3MfWltLT6wiinSAKTcKMI43Tm1i0QcS9LRyyXT0jx+FKIxGzlpogJJ/9SYwkCMLbeFezJFQi2VZqoX1kNGKcvQXJNtOQi5xj9tNh0i7qDsc9CYLwCiQsrweSbaXTLriEZJt5CvkHeXdbjrSMUIXQJQiiRVDzanNq8c3OlVjGpZ4qbdAyk9y47SD2yNfjN59Afs5FQDsV8xMHuhC6BEG0BBKWjnC1eYXHnMe/vihjfyMR9eRYddqg7xg88uIYaA3ZyMwtFyOBxhPr8WpeoHODdoIgvIIPH7gUjwmCIAgHkDpCEAShAhKWBEEQKiBhSRAEoQISlgRBECogYUkQBKECEpYEQRAqIGFJEAShAhKWXqERtQfGIdhnACJySsU4guhENOZgxQAf+MRvgl5pW9QbAO8Iy/odWH5PV/j4PIjEju5XxxOaP8f7r30OgzYRKXF9xEhGm5fLNRiyh7HnxbLnOd4suG1RswFx58LsUnrKbhSKcR0eTTweSg0FcrOw8OAPYmR7owwnXw1h9T8YQUuPgfsTVYe6duMdYVlbjAK+yzXOofBSnSnuBkLa+cfOle0NXi4mmlB3sRh6fqgvRmHtDaqWtAtK8NkLAUwoMEGuNpg1SX8MGBOPOL6hy3v/xJl2+RorcbGIi0gDqs6Ws/+8i3eEpX8YIo0b/A5CxK09TXGdgZosvBjMKoxTDaEE+o3bkKvkO6azlotbqNmA2F2kRj8TGRUm5xRE6+M7cDwe5Ru6bNqJ9Wa/9+2JIPQL59tfaxE4uA/7z7t4R1j2mIDUL36GIHyC7JE3i5GdgIZKXFZ2RWjBmSvbzloubqFBj5HbcYj7mj80x3p3fI8hP+SeEYrfragx+f03h/+g4r2hxl+7vXYC/7H6jYX906CTXpl5h3+53/v2RF8Mf6mUpbsClXNH2jsAbCEuam4tvlk/gH3B29MYWPui8Zweu7hAvXc4xtDOP0SnRuqKy/ze30C4aN3XUFvNN6l1gTRTFvwSsuT7LZoHTsXuUp0euWtjTYP9PMS+iJR955QHYm3P9RmCiEU5Fg+ENjSXsd/szn8XWYU14hlyTmPXpO5i97oaxZ9MxBTe3WbXdX1iN8pKMzCF36PPQmzhp2/5MyLN95XPeEu+tR14qmyNcjFiwLl9KUgzTh7xa3he/wF9nY/4uwOaC3F020zZdSy/Scux4MOz1s+Shh8UJ6ZkEzZWM6OOB9elCY+uaZ9Zb15cwctZKk/bPMUjdm2ujWdM8b35DMMj73LNcj0W9rHkxflwiVTmCukwI1k1+KD7spPsClNcfeF67LSqWyzwd7T1qL0LYSdI5WC5tw3G8nD8u3t1vHUm1ny1EfgtH2v613kUWb0bhtKEppgn+zYgQ6pvA1YgR66uKtRXU73Y6SDPVTi5NIidMxyxuUqTUB62GwmmajuhUjixJFAAdELC0ToxTgGHHvgk74LThLkfznDg2S9SiMq+YO1BsG67sCzG1kuiGJJ2CQXiaSbqhfL8qU68Bip5KHTi2TB0uXD4gjNPk3JvkZK/HhuvkxLeLhdO09fCwee1CuezoJsnvLkojB3bv6+msr8Lrz/mZ3+NMWiFwBf2CwVmFz+lwolX+pp+s/URZH43D7BnVIuRHKks2DU27+jnowlCqEK8yTsnK891u4QNDtKmmbZL+Nr8fNkzlIJd3bCm6WyyEMfPc+TPSDgv5D3vz+4lvU+ZryTFYFtuJhzlV4pX9kbKcOit1JM67syzpxzLeQ7TJcfs80lBJpg9tMraiPl8B21EVsZW3knr9jqsE6aglGdJXil4dPWw3chpI2EpJkqbJCR8co7dlVMhnJUElVXllQqPVcQ57wuHasX4pgLh6NYEIerpA1buXptK04VpxkoUJ+jW7Lecz8469/EEUwWzaxzyRid/Tr1w6dBZMX0M6eU7aoTmfDtwFubVcuHIGq8uTZj1ZbmpsohlY2lMNu+r6biwK4lXPJ7XDUJmwVXxB+6edqWw1FgpbSqzWSjKhbYkRNl9lhy1lJMRx785F5ZSmiOF8IX7xPcgd5ur1Mik9+dMCCjgquHaOYczvSfN5GXC/KzDMqHIhNeROUKqsXzs3723haVndZyV4dEJgo6nw9bttBVuCkvzB0VBICl+SC0use1dNXNsP1AMc33laZfVc/5T2Xbh7dmi0NOmCOmlctfJjoSlh+3GhrYTlko+oc2FIr+/ymcasfjVtm+8nHqh7L1oVki2hWcRltaaiw2uhKXUuBw1Wq+WC8Pc2G21Og5rHEXpYgO2vs6sUTloNObGaJVPWWMTK6X5PLuG6RzXwlJJS5DenVIj9lBYOm24DjQch0j3shca3hWWntZxtbgrLKX2qfZ8Wf1TqjcK3kst59sKQxFzO7D1p+9AWHrYbmyxGrM0G9OaQxCi5/HRJz1yRvWUxbPgbAzCjmFM002x9wntG4bI0b3ZQSkKL1Wb4uCPPreFsL967MnchTzbcRE5kg8axCDhT3cozH75QRsVjSEoQcm/v1cYB0rA9NT7EeXpvIw0W+6xCwp3yoVRV4ziokYmW8YjOdp2dl2DHoPnYc5fosT/JWROzSbeh4cVZqN9g+/B3eEa4PB34Lc3we4XPQd/SfIDDLuR9fcd2PTyCmwyRCJq9QxM9+Jklib1RWy1808uvTvgWuElnDdFthBpgoLVdVt/RmaPmwomYIp0Q89eAeJxK9LiOu5tpPapHsnkyN5DaSNqj+/GVtaGLDbKUn3lceMxo6+CH3nfGNw3nddzZ/70ZXjUbuzxXo13Sk8EBig55lKqcN2gvf8FMHUejVunYpz/fYhdu0d5YkcqBOQga/AvrYW5GLoMzjIWvHKDuwWB/tZN1CNuYvfxSFi6Uy6s3RgK8RWrWN3GRuEu1Y+rQtm3/IPHKtb0weiqUEY+XcbhCe5Ot+Q8CivN0pLVjmj86ZUXME1rQNVfp+KpLQ3QTFuIrX/uZyPYWkaXX/mzN2GPr38g+CfDm/gOnIoZxg+ATcN1ZgLWXIgj6xZgw7PBsnLrjuBHT4sntCItruOtR9MPtbB3zqyA7yjET7+TfYBsPZQqfaCk+hqKgdG3O/hodUNgv1B2BsPqA6+MZ+3GHqtLNSOzcV5uYyVUgqm17BcdmHoqi2eh4lUkt5apDLdP3HcAny4MZ4WVC/2s8UgM6Y+g5zZbC001dpBGWsdIta1prqli+oO7uGGTqGA07tt3Mh7nfsuNRCL898MQ3kqvvU3wvRPjJo2yabhKGo6J5vI1mDfmt7g7eTGmr1ZV2bxLp6jjfugTPxWTmeSz0ugVP1Det6H1rN3Y036rfU8d4v9aiIqmAny5dQZSY6pQtWoqEidnWswg/ILQ2/jpmYH0cm78LRPmVqF1jFTN/HgFVQ1qhyTamgD06t2N/Q1FePYlhbKRBTujcW5+sgD/87pkPlaAM1m7sadDr+/WwH/EeJuG66gLXgL9qgVYmh+IwDkbkFlwVVZeFmPuVqW91HEz11BXbTLbcdQjUCQgHvH8o2vW6B1/oNorHSCFERg16U0s+/wIdvHuk/5dZB0Rlf+eYQjjY20oRlHpdVx+ZbiCyjYQlpqQcNzN/l7LO4MvVT8uEH1v503IgzGt+hyseyEHejyAhCMnxfJfjpQ3TljbZXY0bBuupOHoHkfyaFnzbzyN0x/w+FRkLpqG5AjvjFGq7r5y2ksdN6PS9tqOfhgeH23W6K+YP1AP4OE/D5V9oELQL5L3ZErwzYlvZV12OddQdZHVZ3akGT8UxhXFTvCs3djT/oWlhHnS4yoqa34S4/qj/29vYgfF0B8q9H4Dlr7qjsZFgiIwxDhwwjTLWhcDJ96g9z0YwwfKcz9Fjt3aXKYFFqVh7rO242g3ofdt/Y2V8do/vsBHqrXCBpTvW4VV+Y3QpD6H1XcNw5/mTTGu3qia9z9Iua67S0nasqcCRN5w/y9KjRqO4wkw/CIAgTfZxleh/Lx7WzVIjbbxxNfIt30PzWeQt/It0yIIOa1dx92mFrU/8E9uKEJ/82vwt6AOa41+78W9pg+U3aRLLwwcZtLuG7ftxnqluYr63di29gw7UDkZ51G7sceFsOwG/17SeFUb0ZyHDSGPIHGzfFKHZejsSmzcxmcFh0I3ROpshEL35CSxAT8Jne0Knzo9Ps5Mw6KIsUg550Gjkr7qJQew/lA5SwWjLh85Z8TVA5pQ/GYUry5MmF5qg+Wg5rW5Och6ehEyzorpaC7EiXX34g8Ra7DF7lPMKunYeVjMK4v+OUxMfh0ZRypMeTFiwNndi7Fj0R0I2XDOHN9cthx/fZZ9+bUpeHlWjLFC+g6ah1de6cuO9mLPW5/Z7Dzj6fZYniBpy0yAvH9EXEVjwJmcIvNzm8sy8ARfFaJotSFvuFlIe+souzoGD9/T33riyvcW3NKfN7JVSHkt37xap7l8BzY9OwLRL5eZItQiNVqunf91j7g6iTfWVXjt8dEY97qSHuVpHedDKK2wNV7zBVz46kd2EIKIW3uZ4iRcbUlo1ug/xqbpq0wfqEdGI8ZKCsnqqyETCycvwOyjUn0Vy+qpp5DGd/Oy7Qk4wqN2o4DgDVzaEzqyX5J+l9lFmW2i+P1sg5KtWb1Qvv9+kz2gw2BrOKzWTs9il2cJchsuiw2ctb2XiDfLRcLJygbN5DeEz7ffL7DmZXffprLVwlyjLZn9daYgy4PMiN0uX4rG6hyZob8D+0JHdpau7A7trmOYbfHkQXae+ZkO37FkDC1ea7tSyYjM1tQusLo4/iH2m/07cphfp/eLE8Z+sk1YwuqLfXl4Usct9pPO67nlPFV2kwp2kWbMdrMK9daIzDhcMc0SrJzMixIcBCX7ZEd2lhwP240c73bDPbY3lOE7Bomr38CONTrTtl4imsnLMP+DPBTaDWL7ITjuQ3xc8CZ2GGfPZWiTkPDODmQWbEDmIAUTHZfp9cfApz7E8SxZWnSJSDCOqXCkLq4Ley9vlItEj/vx5FufYL+8fHg+tx7FV++kYPRtfmKkNb59ZmEJtzB4JwGsEsqIRPjCzUjfk4evnxrEvuuNqM2bh2e2NBjH6lZPGGitbfV4CBP/ws1ACnBmXg72mFVU19tjaX59s/oJARf4DlqGvx+Zg1TzgFUcdPeF2z/XYdn3w4iEB8QyVNJwOHzHpA1493A6lj5mKVepLn639k7cKsapQ+l+vPy3sTqajYPxv7AuazOe1PHW2BqP6XbSxjFDBiC8p809XW5JyLTGu57AHOmdxf0eCQOVTOdYOYWvxubiQ/b11ZjfXBz6aIG9fbKZmxEU8EvxWMTDdiPHh0tM8ZjwBL4JwOAULMM8ZJ5d3HrmVIQb8N2yhiJs5o8IXLJH4QNLeIalXLVvfYZLxo/rjQO17JZiZxJBXHdqtuHthSVGzTjzmWgSlN5CtprIbnz3BoCEZYuxNolQM05MtCZM+9m5EssMDyBh6X97abNhgiO5T3Hcfe7cUE1qMZbZO/v1xkSbU78XH2wuY93vBci8YXenbw2kNdvDoHv+Icvu6TcQNGbpFfimsb/HoLgL6JV9CIUJ7m00QBDtHr6R9aBEpIasRPbHs29IjZ2EJUEQhAqoG04QBKECEpYEQRAqIGFJEAShAhKWBEEQKiBhSRAEoQISlgRBECogYUkQBKECEpYEQRAqIGHZ0eC7HPFNbafsRqEYRbQ/TG6lgxEs21CZ6NiQsOxQSJtEDIPu8f9ChBjbtruUi1RkYIqPD7ovO9kGvqpbiKsdvFsBTfQMvDS2Cob0LXirw+0X4Gl9ugZD9jB2XSwr5zbwHNDGkLDsSEhbZNn5tq7ExSJepQ2oOlvO/iOsqC1GAXdDgHMovFRnimttJFcGho+xPre0g2mXVJ+UIGHZYeA7mC/B/LxGBdehrncpv6FxuYO3u/CNU8Yh2GcAInJKxThb/DFgTDzi+I7yG/OQ36GUS6pPSpCw7DA48m3N6YvhL5W2oe/oDkaPCUj9gvvc/gTZXtm2rQkN1dUu9y71HTgejzr0KtieofqkhAthybeRH9BpxyA6FJIPawzHmEjap7FDYPYqmI89X1ygiZ4Ojgth6alDdYnT2DWpuzhzW43iTyZiCp/J9fFB1yd2W7tSbS7E0W0zkWYciBfPSVqOBR+eVRhglt/3f1FxJAOvTeghXjcEEVbuQg04ty/Fct/gKUjcdszs1tSeBlTkL8WGZ4PN6TAOdD/3JjI+sEmLOMmh7G5VRJq9HrACOfLW4lZ+2enn9TjAvcrHjYCut+2G/lU4uTSI3WM4YnN/EONEjGmUuos2ZeETj9i1uaJLViUaUV+YZVUWXZNWYk2R6ErUCc1l7B2sjTW5YjUG/l7eRVah/NoSfPZCAPvNwUSCeWImUebm1QMXr3wvxgHsfLv3JE1IzERGBXs5dXrkytMc+yJS9p2TpUs6vzuCH+V+pktQlHir6VxjEO9jxuLQrurbCpv8uTmJ4uW6Znr3O23eh4ST+mTEth7xd/sPVo98xN87KXw/S8dIriWdu4h0jOgeNektYX9WlMwFJguhy4Vs0TtnU9nfhdcduKkEdzn6wn6hwMrrppP7SkG3UsguPSbkzNba/8bvaedSl1MhnHV0P2OwSYvZbe8wQbe/SoyUY3H9qUnNY3c34X5+Le5K5fex4MQFqNE9KYtft8uxK9Bpu4Sv7dzAOnO/GieMXTNbmMiOFd225k914saUXZtbxkqGI3cNa+sWtVQ48UpfFm/7rtS6eJXh0iXxNGHuhzMcpFnu8lf+bKVgnx6zy15ZfTfh2HWwIh7WNWcuYE1B/j4knNSnpq+Fg88rtSkWdPOENxeFsWNP5UX7pm2EpbEwWaWf875wqJa3ynrh0qGzpgYg81EdOGeDkFlwlccyuO/glcJS44u2rSC2932HCUbuQ5hdU5QupFr5x44Uwl/9QhQ+FcK5HWNNjdPO73G9UPZetCgo4wRd1pcyoVggHM/SiY1a3ngsfsWVhZjkm1qWfo/yK70HB/7JnVVusy9nsSwW7hPfgdw3s0IDlPxDW5UFE4SH08U0mu5pKyybStOFadJ1a/aLz+Kwsv94gul5VmUvCUW50JYJUf7Rq5PO5Tj7zQEuhSX/jacrSUj45JypXrL0mj+cdnVFuk6hvG0xl6Ptsx19DBzRkrrGnq9LE2Z9WW6uO01l24W3JUVCmyKkG9uPhKP6JPP7Lb8fax9HtybIPjYkLMU4d7AINWXthZWz9OV1UPHNjc/q6yvdl1U0Oy1M7sidCYd1Z2wqokKl4pi/3HJhKMdSWeUO+c3pV3I6r+CQ3rP8Sml21DjVCEslDcLygbAWelJeHTTk2oOCpLG7dZ35eTbprNsuLDN+4Exl32Ru5ApC3BPUCEslp/3mdNjWfzeEpfnZLRcgHtc1O2EoYq7zth9hB/XJfP4DLC/VYqSEXFHpnMLSaszStOpAGtPgIQjR8/hoih45o3rK4llwNnZiRwKmp96PKLsRUskJkhbaiffhYQW/Hr7B9+DucA1w+DsU2Y6Qa6ciY/44RFhdpkGPkDAM4YdJC5E9c4jNbF5fDB4xgP29isqan0xRDLPnOu0fMCMuRMHNpz8G/mESmOABco9Df9mUGPOMp50r3EbUHt+NrQaWIrOpj6f5rUH1ZW76reA8XiWa1Bex9d4+NvnygzYq2lhW1wov4bwpklGFsm/5e49Bwp/usJ8N7TkWj6RNN5WFHJmrVMXrzM8rQcm/v7cYs/d4CBP/cicrlQKcydqG7PUz8cyWBmimvYTV434lntSaDGM9yBR7p/2+YYgc3ZsdlKLwUrUpzl00ofjNqG7iPy3Ds7rG48ZjRl+bvHF8Y3Df9Ch2YIAhvwjFpljH1BWjmFfKuPFIjradZGTtbvA8zPkLv1/nxL61tgq3INDfXvxYGiV7WdMHo6tcGEuhyzg8wYVYyXkUVpqlh4mb2H39FASOfyB4FVdPI+pLi/EvfnjvcIyxsmGUERSBIaH8oBhFpeKEg+8oxE/nDd3WFa6SqU8L84ueCAzwzAVpl1/5s7dgj2JZNV/Aha9+ZIrFCOgGuPE8qTEhB1mDf2mfNxa6DM4yNmBr4eyHPo9k4o0kP/Zdno8Jyadh0Kbg5YUPKnxgWwNH5doNPXsFiMctpQ5VNS00H/KoroViYPTtYpwt3RDYL5SdwVBSRmxoNhTiK/bQbmOjcFcbSY72hFWWNSOzcd7UNRdDJZg6zn7RganVsngWKl5FsiOhohpJY1KBLgwR/q31htTZzSnDGnr8VExmtdHKFW7NfuzfXss0Vflqm/aSXxc0X8GVCy5ajhINlbisqhAVjJ1978S4SaPMjVpz3+8wPlhBG7qhaaW6ppLmmirWJ7hxuc7fhwD06s27KKEIz75kLYxtw6E57df9ZkA84if6y7pHSt0iTkvz6wXtpDXxC0Jvo7SbgfRybgSukC9jUDB2rs/B+kWfmz9YjZs2YfGJtlnH3ao0V6PmchM78LxXYIXqukZ4m+tcsoHoeztvMjZjWG2OrDty4CQ+dzQWW1mIf/FPq/Yu6AbdZIoz0g/D46PN3aMr5m7RA3j4z0NlXaCW5td6nLXVkMbZSo5Df94N4dwzDGF8vFU+TKGKMpxck4a0/EAELvknzr7Hy3Ivcub+XZ0dZXvGUy3dIWrrWgj6RTKhyuraNye+ddBruoaqi6wusiPN+KEwrgh1giYkHHezv9fyzuDLDv5aPOE6C0vJaJe9gH98gY+uY8PQDNLhzzwhDjc+YA36nbexhR3Zf8E18B8x3tw92ntxr6lbZDcQ7ml+pYr/I6qvNiikzdsMwJB7+rK/Dlae1O/DxudXGMvCCt/+6P9b/hEphv5QIfiImRqayzZi3Rtl7CM0FRlP341BjyzBYj6RoV+OlDdOqL5P29EFfr16sfeo4qPXUIWqH/lBGMJDvKBZqq5rvTBwmGn8snHbbqw3L9KQUb8b29aeYQdKS2gV6H0PxjhcvtmI+qI0zH2WG+t3TlwIy27w78UbaWvBXvzYeWLDeA4Tk19HxpEKWeM04Ozuxdix6A6EtPa+gAGT8EQ61y0LcCZxOu5dd9SyyqdOj/2L4vHQy6xB233BRczdo4+xafoq1i3SQvvIaMRYlbCn+fVHn9tC2F+llSCtgbQJBJ+Imo17d0qrWBpQ8eVzSLvvj3hqZ4MxxppQ6J6cZLyuat6T0FmtpGKwcvw4Mw2LIsZaVuQ0n8AHL6/AJkMkolbPwHT+EfIdg8RXEqDj91mzFZlWDd2DFTxex2Jxce0fe/F2OU9fI+q++shuNZQ0KYLQAYgIkqtubq7gkeNuXTNkYuHkBZh9VKprXLCtwmtPPcW0eRajexzJo5Wm/2wwL9/MQdbTi5BxVlz901yIE+vuxR8i1mCLsgrbORBaFcke0n5lg5ymstXCXCtDcttgawcm3tduVYSIZFuouDLCiY2cR6sdJOT2nTzYrkix4H5+ZTZzMhtPC67tLO1X2og4LCsnq5m0ScIE/RZhSaiDFTwOV/5IQSob2UIAu3wpGatz5IbkzuuVGZd2lo7sAp3UFbPNoZQnpfs7WFVjRLawQs0KHivU1jX5wgMHQcm+1Fl9ctJGNJPfED7ffr/APpmd386y1dDegiAFEx8J3z6zsGTfAXz6TgLYi5URifCFm5G+Jw9fPzWIfSu9gdSFUqDH/Xhyx7co+mgulj7mJ0ZyeDq2IbMgGwftbBUl2Jf8ricwRxr4ifs9EgYqd7s8ya+vNgK/5efKbDzt8dwO0x4tBj39KT7bm4xU82AWT182so9vwPa7uzsoBz8Ex32IjwvexI6F4dblrE1Cwjs7WDluQOYgVjY1m7HmWdN4W8Ki8dBZVZG+GJr0BKaxGzRuWovFJ6SNXLqgZ78wpnUy3LUYcFEP3cJ3LKZu3oK3Z0s51CJwzr3Q9ZTfvxrfnOImPuy324Nt7E5bsg2a2rrGNODw1dhcfMi+rhnfRS4OfbTA3r7UjEJ94m3krU+wf43O9A44/F5bj+Krd1Iw+jZ5u+lc+HCJKR4T7Rq+6cRQjH39duj2f4pDcW1hrE20iOY8bGKC7Im8h5F8dovpA0F0WLz0mSVaH+tZ0M48NNRZMK8Kc9LLIDoOJCw7DKzrJZsFNRskE+0U2dJWu8kXoiNCr7AjIc3Y260NJtodZn9JUzE/caCD8V2iI0HCskPhj4GPPYc07Sno3/0nyBVu+6XxxHq8mheIwFl/RAKtqukU0AQPQRCECuiTRxAEoQISlgRBECogYUkQBKECEpYEQRAqIGFJEAShAhKWBEEQKiBhSRAEoYIbT1jWZOHFYB/4TNlNRt3tGJOn0WAEt/Y+pgShkhtMWNbim50rscwwDLrH/wsRYmyLNmL1lIoMTPHxQfdlJ6+jOw2V1O/A8nu6svJ5EInH2sYvjiZ6Bl4aWwVD+ha8RevgiXbAjSUszet15V7wOJW4WMRFpAFVZ8vZf4QVtcUo4Dtq4xwKL9WZ4lobaVduh24+3IFvbxfAhL21W16nIX4T9CSjCRmdRFhKjWEmMiocNatG1OYtwfy8RgUfOi3ZiPUGwD8MkcaNZgch4taeprgWoeZ9Sa4tCnBmYx7ySXAR15lOIizV+EhWckQv0RfDXypVdtFKAD0mIPUL7tr2E2SPlDvF8hR1Pq19B47How4dZLlDKH63okZ0wyuF/6DivaHGX7u9dgL/sfqNhf3TbHZuJ250XFSHWnyzfgDTAGKReEza1r+D0ngapz+oZQfDMSbSGw2eaHXMDrIceJkkiDbEhbC8htpqLmBaggFnP56H1yb0sIwH2Qa7mekGVOQvxYZngy3nBE9B4uYDNt7zTmPXpO7s92F45F2uqazHwj58IsL+vs3n9TjAHSTHjYCut+3uglU4uTSIXTMcsbk/iHEixomYAYjIKWX/GHBuXwrSjJMd/BnxiF2ba+fRz0Ij6guzrPLRNWkl1hSJXvEcojb/UnfWwcSUeWIm0eJN0ZPJrMYcrBjA0/ASsqwmW8TyN5Zzs01e2f2f24isQnle1b8vE5LrYCWvlu3ByyNxI9HKHQ3eMEcg/KGlmKvoOlWB5kIcXTICw++Zh+mrZc4TDFuQMzUOsQ/9D7KMrkfd4Rq+P3MUuexIc0d/hDnM9VVU1vwkHtvw/05g44TbMfiBLCw3TnZwmKCcFY97n/0AZ+zaKhN4uX/EHyJTrPLRuPV5zI5IxLhdV5U1Jbfy3w8jEh4wuYyd9zoyzAKRw8p+TRrS8gMRuOR5ZJj9v7RgMstwBZUNSkLp/6F83Z0YaJVXdv9VTyHl3peRoeSzWhUWl7ONu0/DXOxGmlB3sRh6fqgvRmEtCUuilRGcIrnE9My1pdl9K3ederhCdO36s1BXlC6kclew2hQhvVTuhlPmGlWXJiTvPctSIFJ7SPh0YbgLt6KOXKNK+bB3MWvCtStZXlRApBC+cJ9wqJb7ZZW7GR0m6PZXmc6XuJoppBl/ixN0WV8KBUZXrvVC+eF0YanMlai1K1lP8q/kMpal7egEkzta3Uohu07uY1Y6XysELjlqub8zHLqSlblz5c+f/LqwuvCq6SeZy1T335cMcznau5l1nEc1WFzqOnQTTBAyWlFYSpVRSUA5+M3si/kB9rxqMVJG03FhVxJvgI4araPGd17Ie96f/a4gDI2oEZZKPsMtws26wdUIxW+GsmscCKTag0LObC373eY6T/Nft11YZvRDHilEZV8QmsznKQhxT3ApLFk+X9gvfhAsNJWmC9O4oLPz7+6GsDQ/29u+qElYEu5h1SE1rZoQx4+MIQjR83iXTY+cUT1l8SzYjV+5wzXUVduP21m84Y1HcrTCJIxvGCJH92YHxSgqdWd2VJp99dyvtib1RWy18xnuB21UtLGbeK3wEs6bIhlVKPuWl1sMEv50h/3ses+xeCRtOpgQtsLj/Pd4CBP/cie03Mwmaxuy18/EM1saoJn2ElaPawOXudqpyJg/DhE2wxu+wffg7nBWYiXnUVipOOjgGk0ofjOqm/gPQVw/WnHMsht+HTUKcTDAsP3veP5ohThG14CKLzOwcdtFdjwUMVG9RQHUiPrSYvyLH+Y+gdguMsFsDgEIm8lnaUpReKman+kmPREY4JlL0i6/8ofcjF3C1z8QXHxZ0XwBF776kSmqI6AboPZ5Lcm/H/o8kok3kvzYd20+JiSfhkGbgpcXPoioVh6VNnLTLQj0U3iQby8E9O4i/tNS6lBV0xLzIYJoGVY1XDMyG+et7M0qwbqn7BcdWBdIFs9CxatIduGIyXfQE5j+ONMK9Muw5q4+6Gps8D3QZ/QqLOcTDy/MQrpZg2pCQ3U1E61q8JZxdCvRfAVXLrirSbUw/753YtykUWb7Uc19v8P44F+I/xEE0VJaUe/gph0r8Ma7tyN84TosfYxpPRK6NCRv2Y1Dr8XJum5d4Nerl6mxJ+1CgVww2wVPjaPbs3bSwvzX52D9os/NwrZx0yYsPtE267hbleZq1FxuYgee9woIwhu0orC8iOM5e6HX/gEps6fjxR31lsZ+6DVkTh5lM8ZlMRPB4e9Q5OEQl3OcmAZ5E2mcreQ49OfVCueW5F9uJvRPnH0vmgndvciZ+/eOb3/okZZOEN6nFYWlOKliOIXdxw3KNoU2+Goj8FuuWpXokXPKHa0oAL1680kARxM/IegX6c/+/ojqqw2q0tIyBmDIPX3ZXwcrT+r3YePzK7BF/FfC0/w3l23EujfKTBMtT9+NQY8swWK+TFC/HClvnFBneN6muHpfMhqqUPUjPwhDeAhplsT1w4Ww7Ab/XlzIeIK0OUUu8uL6iuOVltA1aTkWvM40T/mKlIBJeCI9lB0wrejh2UjcdgyF5p/5apj12LY5EQ+FbLDZESYQfW/nzyqG/v0j4jUGnMkpEgWFP/rcFmKMs18J0hpIm0AYYJg+G/fuPCc+k09uPYe0+/6Ip5SM9D3Jf/MJfPDyCmwyRCJq9QxM5+PIvmOQ+EqCyVh9zVZkWhmFX4ft6Oxw9b4sNBsK8RUfWwgdgIgguS0CH+ahFTxEG8K6xa2HzDDZYdBlCJllMsP0pq+Fg8+bbBAdhri3hUO2Nn2SAbw8JO0SCmx/V7hWjZ2lQ1s8yQ5T9iwTFcLZrCiTgblt4Eb6+i3CklCF+7qVf5kRu12+lIzVOTJDcrs0O8CVnaWdHaWEY3tKV+/LxM9CTe5YBUN8jsVOUpW9ph1kZ0m4Ryt2w5kWdSQT7+78DcLXnUGl1QRFPcqPzEEq3/ZLvx6L931n6ar6RmHsilMo+miu9aQQQzN5Geav+ASH3p9qtyOM76Bl+Lt0TyNx0N0Xbt5uzdzFzT0O/WVHHXHP7TDt0WLQ05/is73JsjRFInxhNrKPb8D2u7vb2GyKuJP/ms1Y8yzfSekBJCwab1MmfTE06QlMY3lu3LQWi09IG6G0YDs67S0IUjIR8gBX78tENb45dYblj6X19mAbe9Uu6NkvjGnPDF0YIvxbsSoTBMcoMlsDaZmaoibHsWgNqjWcFiGt4vHSqhai9TGvaEoQks/+JEYSxPWh1T7Hjef02MXHmnrfjEDFp/yIy99dYFoD05h+fbOiwbd36Yfh8XyW+BTyD3JthWjvWFY0/R4JA2lyh7i+tJqw9A0IBJ+qwJb1eMZ2G7PmQpxY90fMMK5GeQAP/3koE2KtjQb+I8ZjMu+WbjuIPeTXpZ1Ti/Of70cuqxnaR0YjhnrZxHXGh6uX4rGX4bOudyH65TLxfyUiEb5uO/Qzh7TR7uR8M+OhCJt5M3T7P8WhuDZYN014RnMeNjGN8omiVGSeXexytRhBtDatWAO5q4bjKNqTjrdm2+qNcdCt2YHMgnwUtpmg5Phj4GPPIU17Cvp3/2mz0SzRnmg8sR6v5gUicNYfkUCCkmgHtKJmSRAE0XmgTzZBEIQKSFgSBEGogIQlQRCECkhYEgRBqICEJUEQhApIWBIEQaiAhCVBEIQKSFgSBEGogIRlu6MRtQfGIdhnACJySsU4Fmt0UxyM4A3nLNvZEQTRZlxnYXkauyZ1h8+AFciRS4D6HVh+T1f4+DyIxGNt6XSrCieXBrHnWguqNqX5c7z/2ucwaBOREtdHjAQ00TPw0tgqGNK34K2OtgmIx+/zGgzZw9h1sew6aT9Ogrg+tE/NsrYYBflcep5D4aU6U9wNgrQtmWbSODwsXxPtG42YhH6A4WOszy3tWNrlDfw+ic5D+xSW/mGINO6g3c79g3udEug3bkMuhiFmXJTNtnWSX58CnNmYh/yOpFzesO+T6Ey0T2HZYwJSv/gZnvsH76DU7Mf+7bWANg4JI+23Q/YdOB6Pcq+NuZ8i55v26v9cgRv1fRKdChfCku//OIDGjNoI8+7y9w7HGKVtyaSuuCMXuwRBtBouhOU11FYzTael1OmRuzbW5LaUh+ApSNxbDIejV405WDGAn/cSsmwnM2zv5TMEEYtykGPl7lWaGJiJjAomUtg1+zcnYkqwdE08Ym13b3eJyRXtTqtnsxD7IlK2HpW5rJWe7YOuaZ85cF8hzXj7oPuyk+wKTi2+++o064hroY0JR5gxzpab0Pu2/uwMJZe+7riG9TSNIs2FOLptJtKMkzZSWfAy3YmswhrxJBnO3qcRA87tS5Hdj7/Tf7D34yP+ThDtAL6fpWMkF7E6IeFonRjnHk1lq4W5MdzplOju1By0QuALa4TXHlVwperI9WrddmGZ4r1YsHJ6Jrk5nSHMP7zFwfMhaCa/IxyslXtTc+QSV+ZcTTHwvOwXCsRbmd28aucJmVeVvLUpOU+T3MY6d6hmvred+1n3XMN6lkaGS/fGccLY3DJWYjIcutJlOHP9q5snvLkojB17Xv8Iwlu08phlCfSrFmBpfiAC57yD7NJrXDijqTQb2Qt7QbNiFl58z0pncQLTdL58G6uM93ofh2qbjPcSmgpwdGsCovz8FZyercfiu5OwtGQiEj45J7rjrcC5HWONLlQbt87D5J3fsDu7ogkN1dWo4q5osw6DCUXTs80ufatQtWIjssRxRPPYouEdLM5WuL/S2GRjCf59lJfFbQi/tYcpTgGzS9+S8yislN/ZPdewljTmIufYFTFWhlIam09gd0ointrZwJ6RhllfloOJPtM7LduOt4074ucib8oSLLbS9B3B3mnec5j8OtNt5fcT32lS8RLM/GuxeC5BXGdYRXdCyzRLs/aiWylk19lqLxUCE1oCa9wqNUt30iLTsnQZQmbZNTFeokYofjPU9LuVq15HmqUzpHvJr6kXyt6LNmmidq6ALVqqJjWPlYKI5DrYlVZoLpuWaluWMrBKhxHlNFq00RQhvdS2TBlm17VaQfvWWYt26UizNJ//AMtLtRgp8bNQV5QupBp7BaRZEtcfK/XDtEpEGoPiIQjR8/jImB45o3rK4llwOP4k0Yj60mL8i4/BTbwPD/ew1XS0CHtsGZ55vJv4vyv80ee2EPZXjz2Zu5CnarwxFOHJ05Dc5xfi/xKSGQ4j9zj0l1syVdINPXsFiMcSfugTP9XoSdJ+5voiTu4/AYOteVBDJS7zwUPtLQjyc6IVakLxm1Fqy8wZljKw93aplEbJ2yJLwqTxmNHXtkwZvjG4b3oUOzDAkF8ElzphXTGKi1jZx41HcrTtLLkGPQbPw5y/8PsRxPWnFbvhkl/wMMRE9WVVv6V0g/b+F7AsRsO6z1Mxzv8+xK7dYzOxox7fATrca/TVewVVtSqFZXMhjqxbgA3PBss+HN0R/Ohp8QQZAfGIn+jPDmxmrl2YB+GmWxDoTFiaqUNVTcvMh3wHTsWMJD/7rrhiGqtQ9i3/cIZiYPTtFiFvRTcE9gs1uUA+/B24HHRGs6EQX7EPRLexUbirFWsiQXgDqyqqGZmN8+IYlClUgnVL2S86sG6QLJ6FildduCf10ky6HG6vt+8APl0YzhprLvSzxiMxpD+CntvssdDkQqCqxrWwbC5fg3ljfou7kxdj+mrl+WNr+mF4fDRLJ9Oy3j8iGpE3ovb4bmxll9ut0Lke+N6JcZNGsTSeQv7BMyylHEdprEH1ZbXjy+porqkC9xxPEB2Bjvc976lD/F8LUdFUgC+3zjBNrqyaisTJmS7MZRwRiMAAV3qvfKJqAzILrso+HP9BxXtDxfPkaOA/YrxNV9xBF1zOj0zTbXCSj+Zq1FxuYgc9Wbq7m+I8xpJGS1dcRRoJ4gakFYWlNMZYjPwzZZZuqLfwjcCoSW9i2edHsIt3JfXvIuuIwqyuA5rP63GAqzXaAYjQKoy/yWk8jdMfMC1Zl4rMRdOQHGE7RukAm654s9S91T2O5NEKXXCO4QoqnQrLK7hywYulKaVR6oo7TGMI+kXyvJTgmxPfilqoLddQdbHEqC1qxg+FcYWjEzQh4bib/b2WdwZfevKdI4g2pBWFZTf8OmoU4qy6oXIMOLfuv/GXd1vYtfMNQ+To3uzgKiprfjLFmSlBUdYmZJXbdtHLcHr3R+JkhRvd4V8EIPAm23OrUH6+Ujy2pR9GJDwAnbEMvsCxL3n31sGEV1AEhqgZQ21gmvSP/CAM4SEt1Sw50nAB74r/X5Qau+BKaeyFgcNMmmbjtt1YrzTsUb8b29aeYQcqtdLe92CMw+WbjagvSsPcZxXGgwniOuBCSnSDfy+uTXiGZS3zfCS+sMu8Yqa5fAc2PTsMg5OlcTIVNOdhQ8gjSNwsn9RhDersSmzcdpEdD4VuCB9ftUGfgZRJCzD7aIWo3RpQvHMqUl8uY8cqG7XvLbilP8/HKqS8lm9erWPKxwhEG++lhAY9op/AZGMZrMfzi/LZ02Pw8D397Se8zLPc36HokuOlpdKkCEKZRhwkv4s7K3jkyLviWUh766iDNLLzxs7DYqNtZiYWTpaXKRdsq/DaU08hje8u5ExzlmNevpmDrKcXIeOsuPqnuRAn1t2LP0SswRbVFYQgWhmhVflZqCucJSQZ7QdtQ6QQ/urHwvuLAtXZWZpt8mzvw4NWCFxyVKg0ncmQ7CxZfEqKg+dbr7ox4XgFT93RCSabUKX7jH+I/ebINlNm08mDnd2lhHSejY2iFQ5sNI24t4LHGmm1jqs0OnufYlCya3W2gsfJiiDN5DeEz7ffL4SSnSXRDlDZ//QUplmFv47MA5l4y7i6w4Rm8jKkH96Pf80biX5dxUgl5DaHvmOQuPoN7FijM61SEeH3mv9BHgrnjoS9XnkTAse8iL8f5yuG+Ay6iC4NyXs/Q+HyOESoKgGWj5Eb8O7hdCx9zE+Mszz7u7V34lYxzh6ZTSdLgfaR0YhRfKZl3bdjG8VqfHOKa+NaBN4ebJNf91bwWCMNF3CcpZG/z9XYXHwIn76TACY0LWiTkPBOLg59tEDBrlVEyYa0x/148q1PsF/+Xvm9th7FV++kYPRtlvImiOuKKDQ7GZKW5c5KnFbEvDonQUg++5MYqYB0nqP12mbt2sV9CILwOu6oH4RHWOwWEfd7JAx0MiljOzNtg7SLusv7EAThdUhYtjqS3aKz7q2EfGbadvJLWm6o5j4EQXgbanKtTPO5lXjtdb6SycEsuBWWGWe79drNJ5CfcxHQTsX8xIEu7kMQhLfp5MLyZgQF/FI8vh5cw/dnjprsOac9hhlqus6+Y/DIi2OgNWQjM7dcjGSd+RPr8WpeIAJn/REJ13uZJEHcgPjwgUvxmCAIgnAAqSgEQRAqIGFJEAShAhKWBEEQKiBhSRAEoQISlgRBECogYUkQBKECEpYEQRAqIGFJEAThEuD/A5Y82MaBQuP3AAAAAElFTkSuQmCC;imageBackground=default;imageBorder=#bcc3fb;" parent="1" vertex="1">
                    <mxGeometry x="1" y="-360" width="704" height="698" as="geometry"/>
                </mxCell>
                <mxCell id="5" style="edgeStyle=none;html=1;exitX=0.5;exitY=1;exitDx=0;exitDy=0;entryX=0.622;entryY=0.999;entryDx=0;entryDy=0;entryPerimeter=0;fillColor=#6a00ff;strokeColor=#3700CC;" parent="1" source="2" target="2" edge="1">
                    <mxGeometry relative="1" as="geometry"/>
                </mxCell>
                <mxCell id="6" style="edgeStyle=none;html=1;exitX=0.5;exitY=0;exitDx=0;exitDy=0;entryX=0.46;entryY=-0.002;entryDx=0;entryDy=0;entryPerimeter=0;" edge="1" parent="1" source="2" target="2">
                    <mxGeometry relative="1" as="geometry"/>
                </mxCell>
            </root>
        </mxGraphModel>
    </diagram>
</mxfile>